ffmpeg started on 2025-06-06 at 16:17:58
Report written to "D:\Convert\FFMetrics\reports\psnr_report-6.txt"
Log level: 32
Command line:
ffmpeg -hide_banner -nostdin -i "G:\\\xc0\xed\xe8\xec\xe5\\\xce\xed\xe3\xee\xe8\xed\xe3\xe8\\!_36_\xce\xf1\xe5\xed\xfc_2024\\DreamCast\\\xcf\xe5\xf0\xe5\xf0\xee\xe6\xe4\xe5\xed\xe8\xe5 \xe2 \xe0\xf0\xe8\xf1\xf2\xee\xea\xf0\xe0\xf2\xe0 \xf1\xee \xf1\xef\xee\xf1\xee\xe1\xed\xee\xf1\xf2\xfc\xfe \xe0\xed\xe0\xeb\xe8\xe7\xe0\\\xd2\xc2-2\\DC_Tensei_Kizoku_Kantei_Skill_de_Nariagaru_S2_05_Telegram_HEVC.mkv" -i "G:\\\xc0\xed\xe8\xec\xe5\\\xce\xed\xe3\xee\xe8\xed\xe3\xe8\\!_36_\xce\xf1\xe5\xed\xfc_2024\\DreamCast\\\xcf\xe5\xf0\xe5\xf0\xee\xe6\xe4\xe5\xed\xe8\xe5 \xe2 \xe0\xf0\xe8\xf1\xf2\xee\xea\xf0\xe0\xf2\xe0 \xf1\xee \xf1\xef\xee\xf1\xee\xe1\xed\xee\xf1\xf2\xfc\xfe \xe0\xed\xe0\xeb\xe8\xe7\xe0\\\xd2\xc2-2\\DC_Tensei_Kizoku_Kantei_Skill_de_Nariagaru_S2_05_Telegram.mp4" -lavfi "[0:v]settb=AVTB,setpts=PTS-STARTPTS,format=pix_fmts=yuv420p10,fps=24000/1001,scale=1920:1080:flags=bicubic[main];[1:v]settb=AVTB,setpts=PTS-STARTPTS,format=pix_fmts=yuv420p,fps=24000/1001,scale=1920:1080:flags=bicubic[ref];[main][ref]psnr=eof_action=endall:stats_file='D\\:/Convert/FFMetrics/logs/psnr_logfile-6.txt'" -f null -
Input #0, matroska,webm, from 'G:\Аниме\Онгоинги\!_36_Осень_2024\DreamCast\Перерождение в аристократа со способностью анализа\ТВ-2\DC_Tensei_Kizoku_Kantei_Skill_de_Nariagaru_S2_05_Telegram_HEVC.mkv':
  Metadata:
    COMPATIBLE_BRANDS: isomiso2avc1mp41
    MAJOR_BRAND     : isom
    MINOR_VERSION   : 512
    ENCODER         : Lavf61.7.100
  Duration: 00:23:47.29, start: -0.021000, bitrate: 941 kb/s
  Stream #0:0: Video: hevc (Main 10), yuv420p10le(tv, bt709, progressive), 1920x1080 [SAR 1:1 DAR 16:9], 23.98 fps, 23.98 tbr, 1k tbn (default)
      Metadata:
        HANDLER_NAME    : VideoHandler
        VENDOR_ID       : [0][0][0][0]
        ENCODER         : Lavc61.19.100 libx265
        BPS             : 744584
        DURATION        : 00:23:46.591708333
        NUMBER_OF_FRAMES: 34204
        NUMBER_OF_BYTES : 132777119
        _STATISTICS_WRITING_APP: mkvpropedit v66.0.0 ('Josie') 64-bit
        _STATISTICS_WRITING_DATE_UTC: 2025-06-02 09:45:55
        _STATISTICS_TAGS: BPS DURATION NUMBER_OF_FRAMES NUMBER_OF_BYTES
  Stream #0:1: Audio: aac (LC), 48000 Hz, stereo, fltp (default)
      Metadata:
        HANDLER_NAME    : SoundHandler
        VENDOR_ID       : [0][0][0][0]
        ENCODER         : Lavc61.19.100 aac
        BPS             : 193399
        DURATION        : 00:23:47.285000000
        NUMBER_OF_FRAMES: 66905
        NUMBER_OF_BYTES : 34504483
        _STATISTICS_WRITING_APP: mkvpropedit v66.0.0 ('Josie') 64-bit
        _STATISTICS_WRITING_DATE_UTC: 2025-06-02 09:45:55
        _STATISTICS_TAGS: BPS DURATION NUMBER_OF_FRAMES NUMBER_OF_BYTES
Input #1, mov,mp4,m4a,3gp,3g2,mj2, from 'G:\Аниме\Онгоинги\!_36_Осень_2024\DreamCast\Перерождение в аристократа со способностью анализа\ТВ-2\DC_Tensei_Kizoku_Kantei_Skill_de_Nariagaru_S2_05_Telegram.mp4':
  Metadata:
    major_brand     : isom
    minor_version   : 512
    compatible_brands: isomiso2avc1mp41
    encoder         : Lavf61.1.100
  Duration: 00:23:47.23, start: 0.000000, bitrate: 3415 kb/s
  Stream #1:0[0x1](und): Video: h264 (High) (avc1 / 0x31637661), yuv420p(tv, bt709, progressive), 1920x1080 [SAR 1:1 DAR 16:9], 3269 kb/s, 23.98 fps, 23.98 tbr, 24k tbn (default)
      Metadata:
        handler_name    : VideoHandler
        vendor_id       : [0][0][0][0]
        encoder         : Lavc61.3.100 h264_qsv
  Stream #1:1[0x2](und): Audio: aac (HE-AACv2) (mp4a / 0x6134706D), 48000 Hz, stereo, fltp, 144 kb/s (default)
      Metadata:
        handler_name    : SoundHandler
        vendor_id       : [0][0][0][0]
Stream mapping:
  Stream #0:0 (hevc) -> settb:default
  Stream #1:0 (h264) -> settb:default
  psnr:default -> Stream #0:0 (wrapped_avframe)
  Stream #0:1 -> #0:1 (aac (native) -> pcm_s16le (native))
Output #0, null, to 'pipe:':
  Metadata:
    COMPATIBLE_BRANDS: isomiso2avc1mp41
    MAJOR_BRAND     : isom
    MINOR_VERSION   : 512
    encoder         : Lavf61.7.100
  Stream #0:0: Video: wrapped_avframe, yuv420p10le(tv, bt709, progressive), 1920x1080 [SAR 1:1 DAR 16:9], q=2-31, 200 kb/s, 23.98 fps, 23.98 tbn
      Metadata:
        encoder         : Lavc61.19.100 wrapped_avframe
  Stream #0:1: Audio: pcm_s16le, 48000 Hz, stereo, s16, 1536 kb/s (default)
      Metadata:
        HANDLER_NAME    : SoundHandler
        VENDOR_ID       : [0][0][0][0]
        _STATISTICS_TAGS: BPS DURATION NUMBER_OF_FRAMES NUMBER_OF_BYTES
        BPS             : 193399
        DURATION        : 00:23:47.285000000
        NUMBER_OF_FRAMES: 66905
        NUMBER_OF_BYTES : 34504483
        _STATISTICS_WRITING_APP: mkvpropedit v66.0.0 ('Josie') 64-bit
        _STATISTICS_WRITING_DATE_UTC: 2025-06-02 09:45:55
        encoder         : Lavc61.19.100 pcm_s16le
frame=  176 fps=0.0 q=-0.0 size=N/A time=00:00:07.34 bitrate=N/A speed=14.1x    frame=  391 fps=375 q=-0.0 size=N/A time=00:00:16.30 bitrate=N/A speed=15.6x    frame=  627 fps=402 q=-0.0 size=N/A time=00:00:26.15 bitrate=N/A speed=16.8x    frame=  880 fps=425 q=-0.0 size=N/A time=00:00:36.70 bitrate=N/A speed=17.7x    frame= 1138 fps=439 q=-0.0 size=N/A time=00:00:47.46 bitrate=N/A speed=18.3x    frame= 1399 fps=452 q=-0.0 size=N/A time=00:00:58.34 bitrate=N/A speed=18.8x    frame= 1632 fps=450 q=-0.0 size=N/A time=00:01:08.06 bitrate=N/A speed=18.8x    frame= 1809 fps=438 q=-0.0 size=N/A time=00:01:15.45 bitrate=N/A speed=18.3x    frame= 1996 fps=429 q=-0.0 size=N/A time=00:01:23.24 bitrate=N/A speed=17.9x    frame= 2189 fps=423 q=-0.0 size=N/A time=00:01:31.29 bitrate=N/A speed=17.7x    frame= 2349 fps=413 q=-0.0 size=N/A time=00:01:37.97 bitrate=N/A speed=17.2x    frame= 2504 fps=404 q=-0.0 size=N/A time=00:01:44.43 bitrate=N/A speed=16.9x    frame= 2688 fps=400 q=-0.0 size=N/A time=00:01:52.11 bitrate=N/A speed=16.7x    frame= 2844 fps=394 q=-0.0 size=N/A time=00:01:58.61 bitrate=N/A speed=16.4x    frame= 3031 fps=392 q=-0.0 size=N/A time=00:02:06.41 bitrate=N/A speed=16.3x    frame= 3208 fps=388 q=-0.0 size=N/A time=00:02:13.80 bitrate=N/A speed=16.2x    frame= 3375 fps=385 q=-0.0 size=N/A time=00:02:20.76 bitrate=N/A speed=  16x    frame= 3557 fps=383 q=-0.0 size=N/A time=00:02:28.35 bitrate=N/A speed=  16x    frame= 3784 fps=386 q=-0.0 size=N/A time=00:02:37.82 bitrate=N/A speed=16.1x    frame= 4055 fps=393 q=-0.0 size=N/A time=00:02:49.12 bitrate=N/A speed=16.4x    frame= 4284 fps=396 q=-0.0 size=N/A time=00:02:58.67 bitrate=N/A speed=16.5x    frame= 4551 fps=401 q=-0.0 size=N/A time=00:03:09.81 bitrate=N/A speed=16.7x    frame= 4834 fps=407 q=-0.0 size=N/A time=00:03:21.61 bitrate=N/A speed=  17x    frame= 5094 fps=412 q=-0.0 size=N/A time=00:03:32.46 bitrate=N/A speed=17.2x    frame= 5361 fps=416 q=-0.0 size=N/A time=00:03:43.59 bitrate=N/A speed=17.3x    frame= 5640 fps=420 q=-0.0 size=N/A time=00:03:55.23 bitrate=N/A speed=17.5x    frame= 5911 fps=424 q=-0.0 size=N/A time=00:04:06.53 bitrate=N/A speed=17.7x    frame= 6196 fps=428 q=-0.0 size=N/A time=00:04:18.42 bitrate=N/A speed=17.9x    frame= 6480 fps=433 q=-0.0 size=N/A time=00:04:30.27 bitrate=N/A speed=  18x    frame= 6717 fps=434 q=-0.0 size=N/A time=00:04:40.15 bitrate=N/A speed=18.1x    frame= 6959 fps=435 q=-0.0 size=N/A time=00:04:50.24 bitrate=N/A speed=18.1x    frame= 7201 fps=436 q=-0.0 size=N/A time=00:05:00.34 bitrate=N/A speed=18.2x    frame= 7474 fps=439 q=-0.0 size=N/A time=00:05:11.72 bitrate=N/A speed=18.3x    frame= 7750 fps=441 q=-0.0 size=N/A time=00:05:23.23 bitrate=N/A speed=18.4x    frame= 7993 fps=442 q=-0.0 size=N/A time=00:05:33.37 bitrate=N/A speed=18.4x    frame= 8203 fps=441 q=-0.0 size=N/A time=00:05:42.13 bitrate=N/A speed=18.4x    frame= 8454 fps=443 q=-0.0 size=N/A time=00:05:52.60 bitrate=N/A speed=18.5x    frame= 8717 fps=444 q=-0.0 size=N/A time=00:06:03.57 bitrate=N/A speed=18.5x    frame= 8975 fps=446 q=-0.0 size=N/A time=00:06:14.33 bitrate=N/A speed=18.6x    frame= 9222 fps=447 q=-0.0 size=N/A time=00:06:24.63 bitrate=N/A speed=18.6x    frame= 9488 fps=448 q=-0.0 size=N/A time=00:06:35.72 bitrate=N/A speed=18.7x    frame= 9760 fps=450 q=-0.0 size=N/A time=00:06:47.07 bitrate=N/A speed=18.8x    frame=10013 fps=451 q=-0.0 size=N/A time=00:06:57.62 bitrate=N/A speed=18.8x    frame=10287 fps=453 q=-0.0 size=N/A time=00:07:09.05 bitrate=N/A speed=18.9x    frame=10560 fps=455 q=-0.0 size=N/A time=00:07:20.44 bitrate=N/A speed=  19x    frame=10823 fps=456 q=-0.0 size=N/A time=00:07:31.40 bitrate=N/A speed=  19x    frame=11089 fps=457 q=-0.0 size=N/A time=00:07:42.50 bitrate=N/A speed=19.1x    frame=11351 fps=458 q=-0.0 size=N/A time=00:07:53.43 bitrate=N/A speed=19.1x    frame=11609 fps=459 q=-0.0 size=N/A time=00:08:04.19 bitrate=N/A speed=19.1x    frame=11873 fps=460 q=-0.0 size=N/A time=00:08:15.20 bitrate=N/A speed=19.2x    frame=12130 fps=461 q=-0.0 size=N/A time=00:08:25.92 bitrate=N/A speed=19.2x    frame=12331 fps=459 q=-0.0 size=N/A time=00:08:34.30 bitrate=N/A speed=19.2x    frame=12601 fps=461 q=-0.0 size=N/A time=00:08:45.56 bitrate=N/A speed=19.2x    frame=12809 fps=460 q=-0.0 size=N/A time=00:08:54.24 bitrate=N/A speed=19.2x    frame=13038 fps=459 q=-0.0 size=N/A time=00:09:03.79 bitrate=N/A speed=19.2x    frame=13300 fps=460 q=-0.0 size=N/A time=00:09:14.72 bitrate=N/A speed=19.2x    frame=13508 fps=459 q=-0.0 size=N/A time=00:09:23.39 bitrate=N/A speed=19.1x    frame=13772 fps=460 q=-0.0 size=N/A time=00:09:34.40 bitrate=N/A speed=19.2x    frame=14025 fps=460 q=-0.0 size=N/A time=00:09:44.95 bitrate=N/A speed=19.2x    frame=14276 fps=461 q=-0.0 size=N/A time=00:09:55.42 bitrate=N/A speed=19.2x    frame=14560 fps=462 q=-0.0 size=N/A time=00:10:07.27 bitrate=N/A speed=19.3x    frame=14804 fps=462 q=-0.0 size=N/A time=00:10:17.45 bitrate=N/A speed=19.3x    frame=15029 fps=462 q=-0.0 size=N/A time=00:10:26.83 bitrate=N/A speed=19.3x    frame=15269 fps=462 q=-0.0 size=N/A time=00:10:36.84 bitrate=N/A speed=19.3x    frame=15526 fps=462 q=-0.0 size=N/A time=00:10:47.56 bitrate=N/A speed=19.3x    frame=15783 fps=463 q=-0.0 size=N/A time=00:10:58.28 bitrate=N/A speed=19.3x    frame=16037 fps=463 q=-0.0 size=N/A time=00:11:08.87 bitrate=N/A speed=19.3x    frame=16280 fps=464 q=-0.0 size=N/A time=00:11:19.01 bitrate=N/A speed=19.3x    frame=16547 fps=464 q=-0.0 size=N/A time=00:11:30.14 bitrate=N/A speed=19.4x    frame=16822 fps=465 q=-0.0 size=N/A time=00:11:41.61 bitrate=N/A speed=19.4x    frame=17055 fps=465 q=-0.0 size=N/A time=00:11:51.33 bitrate=N/A speed=19.4x    frame=17249 fps=464 q=-0.0 size=N/A time=00:11:59.42 bitrate=N/A speed=19.4x    frame=17498 fps=464 q=-0.0 size=N/A time=00:12:09.81 bitrate=N/A speed=19.4x    frame=17759 fps=465 q=-0.0 size=N/A time=00:12:20.69 bitrate=N/A speed=19.4x    frame=17990 fps=465 q=-0.0 size=N/A time=00:12:30.33 bitrate=N/A speed=19.4x    frame=18260 fps=465 q=-0.0 size=N/A time=00:12:41.59 bitrate=N/A speed=19.4x    frame=18522 fps=466 q=-0.0 size=N/A time=00:12:52.52 bitrate=N/A speed=19.4x    frame=18751 fps=466 q=-0.0 size=N/A time=00:13:02.07 bitrate=N/A speed=19.4x    frame=19006 fps=466 q=-0.0 size=N/A time=00:13:12.70 bitrate=N/A speed=19.4x    frame=19291 fps=467 q=-0.0 size=N/A time=00:13:24.59 bitrate=N/A speed=19.5x    frame=19550 fps=467 q=-0.0 size=N/A time=00:13:35.39 bitrate=N/A speed=19.5x    frame=19817 fps=468 q=-0.0 size=N/A time=00:13:46.53 bitrate=N/A speed=19.5x    frame=20099 fps=469 q=-0.0 size=N/A time=00:13:58.29 bitrate=N/A speed=19.6x    frame=20335 fps=469 q=-0.0 size=N/A time=00:14:08.13 bitrate=N/A speed=19.6x    frame=20591 fps=469 q=-0.0 size=N/A time=00:14:18.81 bitrate=N/A speed=19.6x    frame=20812 fps=469 q=-0.0 size=N/A time=00:14:28.03 bitrate=N/A speed=19.5x    frame=21050 fps=469 q=-0.0 size=N/A time=00:14:37.96 bitrate=N/A speed=19.5x    frame=21312 fps=469 q=-0.0 size=N/A time=00:14:48.88 bitrate=N/A speed=19.6x    frame=21542 fps=469 q=-0.0 size=N/A time=00:14:58.48 bitrate=N/A speed=19.6x    frame=21789 fps=469 q=-0.0 size=N/A time=00:15:08.78 bitrate=N/A speed=19.6x    frame=22025 fps=469 q=-0.0 size=N/A time=00:15:18.62 bitrate=N/A speed=19.6x    frame=22279 fps=469 q=-0.0 size=N/A time=00:15:29.21 bitrate=N/A speed=19.6x    frame=22545 fps=470 q=-0.0 size=N/A time=00:15:40.31 bitrate=N/A speed=19.6x    frame=22792 fps=470 q=-0.0 size=N/A time=00:15:50.61 bitrate=N/A speed=19.6x    frame=23062 fps=470 q=-0.0 size=N/A time=00:16:01.87 bitrate=N/A speed=19.6x    frame=23300 fps=470 q=-0.0 size=N/A time=00:16:11.80 bitrate=N/A speed=19.6x    frame=23511 fps=470 q=-0.0 size=N/A time=00:16:20.60 bitrate=N/A speed=19.6x    frame=23762 fps=470 q=-0.0 size=N/A time=00:16:31.07 bitrate=N/A speed=19.6x    frame=23985 fps=469 q=-0.0 size=N/A time=00:16:40.37 bitrate=N/A speed=19.6x    frame=24240 fps=470 q=-0.0 size=N/A time=00:16:51.01 bitrate=N/A speed=19.6x    frame=24499 fps=470 q=-0.0 size=N/A time=00:17:01.81 bitrate=N/A speed=19.6x    frame=24774 fps=471 q=-0.0 size=N/A time=00:17:13.28 bitrate=N/A speed=19.6x    frame=25014 fps=471 q=-0.0 size=N/A time=00:17:23.29 bitrate=N/A speed=19.6x    frame=25283 fps=471 q=-0.0 size=N/A time=00:17:34.51 bitrate=N/A speed=19.6x    frame=25532 fps=471 q=-0.0 size=N/A time=00:17:44.89 bitrate=N/A speed=19.6x    frame=25756 fps=471 q=-0.0 size=N/A time=00:17:54.23 bitrate=N/A speed=19.6x    frame=26000 fps=471 q=-0.0 size=N/A time=00:18:04.45 bitrate=N/A speed=19.6x    frame=26266 fps=471 q=-0.0 size=N/A time=00:18:15.51 bitrate=N/A speed=19.7x    frame=26544 fps=472 q=-0.0 size=N/A time=00:18:27.10 bitrate=N/A speed=19.7x    frame=26817 fps=472 q=-0.0 size=N/A time=00:18:38.49 bitrate=N/A speed=19.7x    frame=27071 fps=473 q=-0.0 size=N/A time=00:18:49.08 bitrate=N/A speed=19.7x    frame=27348 fps=473 q=-0.0 size=N/A time=00:19:00.63 bitrate=N/A speed=19.7x    frame=27613 fps=474 q=-0.0 size=N/A time=00:19:11.69 bitrate=N/A speed=19.7x    frame=27852 fps=473 q=-0.0 size=N/A time=00:19:21.66 bitrate=N/A speed=19.7x    frame=28100 fps=473 q=-0.0 size=N/A time=00:19:32.00 bitrate=N/A speed=19.7x    frame=28380 fps=474 q=-0.0 size=N/A time=00:19:43.68 bitrate=N/A speed=19.8x    frame=28657 fps=475 q=-0.0 size=N/A time=00:19:55.23 bitrate=N/A speed=19.8x    frame=28900 fps=475 q=-0.0 size=N/A time=00:20:05.37 bitrate=N/A speed=19.8x    frame=29185 fps=475 q=-0.0 size=N/A time=00:20:17.25 bitrate=N/A speed=19.8x    frame=29439 fps=475 q=-0.0 size=N/A time=00:20:27.85 bitrate=N/A speed=19.8x    frame=29667 fps=475 q=-0.0 size=N/A time=00:20:37.36 bitrate=N/A speed=19.8x    frame=29913 fps=475 q=-0.0 size=N/A time=00:20:47.62 bitrate=N/A speed=19.8x    frame=30174 fps=475 q=-0.0 size=N/A time=00:20:58.50 bitrate=N/A speed=19.8x    frame=30414 fps=475 q=-0.0 size=N/A time=00:21:08.51 bitrate=N/A speed=19.8x    frame=30689 fps=476 q=-0.0 size=N/A time=00:21:19.98 bitrate=N/A speed=19.8x    frame=30969 fps=476 q=-0.0 size=N/A time=00:21:31.66 bitrate=N/A speed=19.9x    frame=31227 fps=476 q=-0.0 size=N/A time=00:21:42.42 bitrate=N/A speed=19.9x    frame=31453 fps=476 q=-0.0 size=N/A time=00:21:51.85 bitrate=N/A speed=19.9x    frame=31716 fps=476 q=-0.0 size=N/A time=00:22:02.82 bitrate=N/A speed=19.9x    frame=31934 fps=476 q=-0.0 size=N/A time=00:22:11.91 bitrate=N/A speed=19.9x    frame=32205 fps=476 q=-0.0 size=N/A time=00:22:23.21 bitrate=N/A speed=19.9x    frame=32435 fps=476 q=-0.0 size=N/A time=00:22:32.80 bitrate=N/A speed=19.9x    frame=32654 fps=476 q=-0.0 size=N/A time=00:22:41.94 bitrate=N/A speed=19.8x    frame=32879 fps=476 q=-0.0 size=N/A time=00:22:51.32 bitrate=N/A speed=19.8x    frame=33097 fps=475 q=-0.0 size=N/A time=00:23:00.42 bitrate=N/A speed=19.8x    frame=33342 fps=475 q=-0.0 size=N/A time=00:23:10.63 bitrate=N/A speed=19.8x    frame=33555 fps=475 q=-0.0 size=N/A time=00:23:19.52 bitrate=N/A speed=19.8x    frame=33793 fps=475 q=-0.0 size=N/A time=00:23:29.44 bitrate=N/A speed=19.8x    frame=34018 fps=474 q=-0.0 size=N/A time=00:23:38.83 bitrate=N/A speed=19.8x    [Parsed_psnr_10 @ 000001987b476600] PSNR y:48.534027 u:51.729135 v:52.070386 average:49.394010 min:36.922806 max:inf
[out#0/null @ 0000019878915380] video:14697KiB audio:267620KiB subtitle:0KiB other streams:0KiB global headers:0KiB muxing overhead: unknown
frame=34204 fps=474 q=-0.0 Lsize=N/A time=00:23:46.59 bitrate=N/A speed=19.8x    
